

[IMG]http://img697.imageshack.us/img697/7451/displaymediaphpl.jpg[/IMG]

[IMG]http://img815.imageshack.us/img815/2118/41100443.jpg[/IMG]


[IMG]http://myph.us/pics/64623_8we5inyn.png[/IMG]

General
Complete name                    : Ghost Town[2008]DvDrip{Dual audio}[Eng Hindi]Current_HD
Format                           : AVI
Format/Info                      : Audio Video Interleave
Format profile                   : OpenDML
File size                        : 887 MiB
Duration                         : 1h 38mn
Overall bit rate                 : 1 264 Kbps

[IMG]http://img518.imageshack.us/img518/241/windowsmediaplayerfile.png[/IMG]


Video
ID                               : 0
Format                           : MPEG-4 Visual
Format profile                   : Advanced Simple@L5
Format settings, BVOP            : Yes
Format settings, QPel            : No
Format settings, GMC             : No warppoints
Format settings, Matrix          : Default (H.263)
Muxing mode                      : Packed bitstream
Codec ID                         : XVID
Codec ID/Hint                    : XviD
Duration                         : 1h 38mn
Bit rate                         : 999 Kbps
Width                            : 720 pixels
Height                           : 384 pixels
Display aspect ratio             : 1.875
Frame rate                       : 25.000 fps
Color space                      : YUV
Chroma subsampling               : 4:2:0
Bit depth                        : 8 bits
Scan type                        : Progressive
Bits/(Pixel*Frame)               : 0.145
Stream size                      : 701 MiB (79%)
Writing library                  : XviD 1.2.1 (UTC 2008-12-04)

[IMG]http://img33.imageshack.us/img33/9892/musicfile.png[/IMG]

Audio #1
ID                               : 1
Format                           : MPEG Audio
Format version                   : Version 1
Format profile                   : Layer 3
Mode                             : Joint stereo
Mode extension                   : MS Stereo
Codec ID                         : 55
Codec ID/Hint                    : MP3
Duration                         : 1h 38mn
Bit rate mode                    : Variable
Bit rate                         : 128 Kbps
Channel(s)                       : 2 channels
Sampling rate                    : 48.0 KHz
Stream size                      : 89.4 MiB (10%)
Alignment                        : Aligned on interleaves
Interleave, duration             : 24 ms (0.60 video frame)
Interleave, preload duration     : 177 ms
Writing library                  : LAME3.98r
Encoding settings                : -m j -V 4 -q 3 -lowpass 17 --abr 128

[IMG]http://img33.imageshack.us/img33/9892/musicfile.png[/IMG]

Audio #2
ID                               : 2
Format                           : MPEG Audio
Format version                   : Version 1
Format profile                   : Layer 3
Mode                             : Joint stereo
Codec ID                         : 55
Codec ID/Hint                    : MP3
Duration                         : 1h 38mn
Bit rate mode                    : Constant
Bit rate                         : 128 Kbps
Channel(s)                       : 2 channels
Sampling rate                    : 48.0 KHz
Stream size                      : 89.8 MiB (10%)
Alignment                        : Aligned on interleaves
Interleave, duration             : 696 ms (17.39 video frames)
Interleave, preload duration     : 216 ms
Title                            : CurrentHD
Writing library                  : LAME3.97



[IMG]http://img522.imageshack.us/img522/1171/vlcsnap2010051817h32m29.png[/IMG]
[IMG]http://img13.imageshack.us/img13/1269/vlcsnap2010051817h43m37.png[/IMG]
[IMG]http://img26.imageshack.us/img26/1736/vlcsnap2010051817h29m52.png[/IMG]

